<svg width="262" height="75" viewBox="0 0 262 75" fill="none" xmlns="http://www.w3.org/2000/svg">
<path d="M94.4856 49.2934C91.3361 49.2934 88.7832 48.3153 86.827 46.3591C84.8903 44.3833 83.922 41.6935 83.922 38.2897C83.922 34.8468 84.8903 32.157 86.827 30.2203C88.7636 28.2641 91.4437 27.286 94.867 27.286C96.2755 27.286 97.5568 27.3838 98.711 27.5794C99.1805 27.6577 99.5717 27.8924 99.8847 28.2837C100.198 28.6554 100.354 29.0857 100.354 29.5748V29.6921C100.354 30.103 100.188 30.4355 99.8554 30.6898C99.5228 30.9441 99.1512 31.0224 98.7403 30.9246C97.5862 30.6703 96.4418 30.5431 95.3072 30.5431C92.9402 30.5431 91.1404 31.1984 89.908 32.5091C88.6952 33.8002 88.0888 35.7271 88.0888 38.2897C88.0888 40.7741 88.6854 42.6912 89.8787 44.041C91.0915 45.3712 92.725 46.0363 94.779 46.0363C95.6202 46.0363 96.4516 45.919 97.2732 45.6842C97.4297 45.6451 97.5079 45.5375 97.5079 45.3614V39.5515C97.5079 39.3754 97.4297 39.2874 97.2732 39.2874H93.6053C93.1749 39.2874 92.8032 39.1407 92.4902 38.8472C92.1968 38.5342 92.0501 38.1626 92.0501 37.7322C92.0501 37.2823 92.1968 36.9106 92.4902 36.6172C92.8032 36.3042 93.1749 36.1477 93.6053 36.1477H99.7674C100.217 36.1477 100.609 36.3139 100.941 36.6465C101.274 36.9791 101.44 37.3703 101.44 37.8202V46.3591C101.44 46.8677 101.293 47.3274 101 47.7382C100.706 48.149 100.325 48.4229 99.8554 48.5599C98.1926 49.0489 96.4027 49.2934 94.4856 49.2934ZM110.191 30.9246V37.292C110.191 37.4485 110.279 37.5268 110.455 37.5268H111.922C115.404 37.5268 117.145 36.2846 117.145 33.8002C117.145 31.5897 115.531 30.4844 112.303 30.4844C111.717 30.4844 111.1 30.5333 110.455 30.6311C110.279 30.6703 110.191 30.7681 110.191 30.9246ZM107.814 49C107.364 49 106.973 48.8337 106.64 48.5012C106.308 48.1686 106.141 47.7774 106.141 47.3274V29.3987C106.141 28.9292 106.298 28.5086 106.611 28.137C106.924 27.7653 107.315 27.5599 107.785 27.5207C109.447 27.3642 111.051 27.286 112.597 27.286C115.472 27.286 117.624 27.824 119.052 28.8999C120.48 29.9562 121.194 31.4527 121.194 33.3894C121.194 34.7783 120.813 36.0009 120.05 37.0573C119.307 38.1137 118.299 38.857 117.028 39.2874C117.008 39.2874 116.998 39.2972 116.998 39.3167C116.998 39.3559 117.008 39.3754 117.028 39.3754C117.967 39.9623 118.769 41.1164 119.434 42.8379L121.194 47.4448C121.331 47.8165 121.282 48.1686 121.048 48.5012C120.833 48.8337 120.529 49 120.138 49H119.228C118.72 49 118.26 48.8631 117.849 48.5892C117.438 48.2958 117.145 47.9143 116.969 47.4448L115.326 42.9259C114.974 41.987 114.573 41.3708 114.123 41.0773C113.673 40.7839 112.9 40.6372 111.805 40.6372H110.455C110.279 40.6372 110.191 40.7252 110.191 40.9013V47.3274C110.191 47.7774 110.024 48.1686 109.692 48.5012C109.379 48.8337 108.997 49 108.547 49H107.814ZM138.688 38.2897C138.688 33.2036 136.829 30.6605 133.113 30.6605C129.396 30.6605 127.537 33.2036 127.537 38.2897C127.537 43.3759 129.396 45.919 133.113 45.919C136.829 45.919 138.688 43.3759 138.688 38.2897ZM140.243 46.3885C138.502 48.3251 136.125 49.2934 133.113 49.2934C130.1 49.2934 127.713 48.3251 125.953 46.3885C124.212 44.4518 123.341 41.7522 123.341 38.2897C123.341 34.8272 124.212 32.1276 125.953 30.191C127.713 28.2543 130.1 27.286 133.113 27.286C136.125 27.286 138.502 28.2543 140.243 30.191C142.004 32.1276 142.884 34.8272 142.884 38.2897C142.884 41.7522 142.004 44.4518 140.243 46.3885ZM160.733 38.2897C160.733 33.2036 158.875 30.6605 155.158 30.6605C151.441 30.6605 149.583 33.2036 149.583 38.2897C149.583 43.3759 151.441 45.919 155.158 45.919C158.875 45.919 160.733 43.3759 160.733 38.2897ZM162.288 46.3885C160.547 48.3251 158.17 49.2934 155.158 49.2934C152.145 49.2934 149.759 48.3251 147.998 46.3885C146.257 44.4518 145.386 41.7522 145.386 38.2897C145.386 34.8272 146.257 32.1276 147.998 30.191C149.759 28.2543 152.145 27.286 155.158 27.286C158.17 27.286 160.547 28.2543 162.288 30.191C164.049 32.1276 164.929 34.8272 164.929 38.2897C164.929 41.7522 164.049 44.4518 162.288 46.3885ZM172.301 47.4155L166.227 29.164C166.09 28.7727 166.139 28.4108 166.374 28.0783C166.609 27.7457 166.932 27.5794 167.342 27.5794H168.399C168.888 27.5794 169.338 27.7359 169.749 28.0489C170.159 28.3424 170.423 28.7238 170.541 29.1933L175.03 44.9506C175.03 44.9702 175.04 44.98 175.06 44.98C175.079 44.98 175.089 44.9702 175.089 44.9506L179.637 29.164C179.774 28.6945 180.038 28.313 180.429 28.0196C180.84 27.7261 181.29 27.5794 181.779 27.5794H182.718C183.129 27.5794 183.452 27.7457 183.687 28.0783C183.921 28.4108 183.97 28.7727 183.833 29.164L177.759 47.4155C177.603 47.885 177.319 48.2664 176.908 48.5599C176.517 48.8533 176.067 49 175.558 49H174.502C174.013 49 173.563 48.8533 173.152 48.5599C172.761 48.2664 172.477 47.885 172.301 47.4155ZM188.63 49C188.18 49 187.789 48.8337 187.456 48.5012C187.124 48.1686 186.957 47.7774 186.957 47.3274V29.252C186.957 28.8021 187.124 28.4108 187.456 28.0783C187.789 27.7457 188.18 27.5794 188.63 27.5794H198.607C199.056 27.5794 199.448 27.7457 199.78 28.0783C200.113 28.4108 200.279 28.8021 200.279 29.252C200.279 29.7019 200.113 30.0932 199.78 30.4257C199.448 30.7387 199.056 30.8952 198.607 30.8952H191.329C191.153 30.8952 191.065 30.9832 191.065 31.1593V35.8836C191.065 36.0596 191.153 36.1477 191.329 36.1477H198.108C198.558 36.1477 198.929 36.3042 199.223 36.6172C199.536 36.9301 199.692 37.3018 199.692 37.7322C199.692 38.1626 199.536 38.5342 199.223 38.8472C198.929 39.1407 198.558 39.2874 198.108 39.2874H191.329C191.153 39.2874 191.065 39.3754 191.065 39.5515V45.4201C191.065 45.5962 191.153 45.6842 191.329 45.6842H198.607C199.056 45.6842 199.448 45.8505 199.78 46.183C200.113 46.496 200.279 46.8775 200.279 47.3274C200.279 47.7774 200.113 48.1686 199.78 48.5012C199.448 48.8337 199.056 49 198.607 49H188.63ZM208.545 39.3754V43.3661C208.545 44.1486 208.878 44.843 209.543 45.4495C210.208 46.0559 211 46.3591 211.92 46.3591C212.956 46.3591 213.778 45.9483 214.385 45.1267C214.991 44.2855 215.294 43.0335 215.294 41.3708C215.294 38.0452 214.169 36.3824 211.92 36.3824C211 36.3824 210.208 36.6856 209.543 37.292C208.878 37.8985 208.545 38.5929 208.545 39.3754ZM206.344 49C205.895 49 205.503 48.8337 205.171 48.5012C204.838 48.1686 204.672 47.7774 204.672 47.3274V28.6651C204.672 28.2152 204.838 27.824 205.171 27.4914C205.503 27.1588 205.895 26.9926 206.344 26.9926H206.931C207.381 26.9926 207.773 27.1588 208.105 27.4914C208.438 27.824 208.604 28.2152 208.604 28.6651V35.2674C208.604 35.2869 208.614 35.2967 208.633 35.2967C208.653 35.2967 208.672 35.2869 208.692 35.2674C209.963 34.0545 211.431 33.4481 213.093 33.4481C214.932 33.4481 216.399 34.1425 217.495 35.5315C218.61 36.9008 219.167 38.8472 219.167 41.3708C219.167 43.816 218.59 45.7527 217.436 47.1807C216.282 48.5892 214.834 49.2934 213.093 49.2934C211.313 49.2934 209.778 48.5696 208.487 47.122C208.467 47.1025 208.447 47.0927 208.428 47.0927C208.408 47.0927 208.399 47.1025 208.399 47.122L208.369 47.3274C208.35 47.7969 208.174 48.198 207.841 48.5305C207.528 48.8435 207.137 49 206.667 49H206.344ZM224.231 49C223.781 49 223.39 48.8337 223.057 48.5012C222.725 48.1686 222.559 47.7774 222.559 47.3274V35.4141C222.559 34.9641 222.725 34.5729 223.057 34.2403C223.39 33.9078 223.781 33.7415 224.231 33.7415H224.613C225.082 33.7415 225.473 33.9078 225.786 34.2403C226.119 34.5533 226.295 34.9446 226.314 35.4141V35.6195C226.314 35.639 226.324 35.6488 226.344 35.6488C226.363 35.6488 226.383 35.639 226.402 35.6195C227.733 34.1719 229.288 33.4481 231.068 33.4481C232.848 33.4481 234.139 33.9567 234.941 34.9739C235.763 35.9716 236.174 37.6442 236.174 39.9916V47.3274C236.174 47.7774 236.008 48.1686 235.675 48.5012C235.342 48.8337 234.951 49 234.501 49H234.002C233.552 49 233.161 48.8337 232.829 48.5012C232.516 48.1686 232.359 47.7774 232.359 47.3274V40.2851C232.359 38.8179 232.164 37.8202 231.772 37.292C231.401 36.7443 230.726 36.4704 229.748 36.4704C228.946 36.4704 228.202 36.8128 227.518 37.4974C226.833 38.1821 226.491 38.9157 226.491 39.6982V47.3274C226.491 47.7774 226.324 48.1686 225.992 48.5012C225.659 48.8337 225.268 49 224.818 49H224.231ZM244.297 39.3754V43.3661C244.297 44.1486 244.629 44.843 245.294 45.4495C245.959 46.0559 246.752 46.3591 247.671 46.3591C248.708 46.3591 249.53 45.9483 250.136 45.1267C250.742 44.2855 251.046 43.0335 251.046 41.3708C251.046 38.0452 249.921 36.3824 247.671 36.3824C246.752 36.3824 245.959 36.6856 245.294 37.292C244.629 37.8985 244.297 38.5929 244.297 39.3754ZM242.096 49C241.646 49 241.255 48.8337 240.922 48.5012C240.59 48.1686 240.423 47.7774 240.423 47.3274V28.6651C240.423 28.2152 240.59 27.824 240.922 27.4914C241.255 27.1588 241.646 26.9926 242.096 26.9926H242.683C243.133 26.9926 243.524 27.1588 243.857 27.4914C244.189 27.824 244.355 28.2152 244.355 28.6651V35.2674C244.355 35.2869 244.365 35.2967 244.385 35.2967C244.404 35.2967 244.424 35.2869 244.443 35.2674C245.715 34.0545 247.182 33.4481 248.845 33.4481C250.684 33.4481 252.151 34.1425 253.246 35.5315C254.361 36.9008 254.919 38.8472 254.919 41.3708C254.919 43.816 254.342 45.7527 253.188 47.1807C252.033 48.5892 250.586 49.2934 248.845 49.2934C247.065 49.2934 245.529 48.5696 244.238 47.122C244.218 47.1025 244.199 47.0927 244.179 47.0927C244.16 47.0927 244.15 47.1025 244.15 47.122L244.121 47.3274C244.101 47.7969 243.925 48.198 243.592 48.5305C243.279 48.8435 242.888 49 242.419 49H242.096Z" fill="#FF5A5F"/>
<path fill-rule="evenodd" clip-rule="evenodd" d="M8.45588 37.5C8.45588 21.4686 21.4847 8.45588 37.5773 8.45588C47.0517 8.45588 55.4661 12.9634 60.79 19.9586C62.2041 21.8167 64.8568 22.1767 66.7149 20.7625C68.573 19.3484 68.9329 16.6957 67.5188 14.8376C60.6618 5.82783 49.7994 0 37.5773 0C16.8332 0 0 16.7801 0 37.5C0 57.9769 16.4407 74.6059 36.8492 74.993C36.97 75 37.0921 75.0018 37.2153 74.9983C37.3358 74.9994 37.4565 75 37.5773 75V74.9848C52.7462 74.3673 61.891 67.6743 66.9085 59.8663C69.3763 56.0262 70.7792 52.0233 71.478 48.5428C72.1601 45.1461 72.2299 41.9452 71.7478 39.6879C70.9547 35.9748 69.244 33.0279 66.8079 30.8655C64.4135 28.74 61.5522 27.5775 58.7365 26.9935C53.217 25.8485 47.1971 26.7843 42.938 27.8894C38.3454 29.081 34.5526 31.1533 31.8334 33.6833C29.2015 36.1322 27.2059 39.3898 27.2059 42.9262C27.2059 45.2612 29.0988 47.1541 31.4338 47.1541C33.7688 47.1542 35.6617 45.2613 35.6618 42.9262C35.6618 42.5836 35.9446 41.4081 37.5934 39.874C39.1549 38.4211 41.6452 36.9607 45.0617 36.0743C48.8117 35.1013 53.3557 34.5132 57.019 35.2731C58.7949 35.6415 60.1798 36.2886 61.1944 37.1893C62.1674 38.053 63.0287 39.3488 63.4784 41.4542C63.6435 42.2273 63.7263 44.1955 63.1876 46.8781C62.6658 49.477 61.6143 52.4637 59.7949 55.2949C56.2905 60.7483 49.6702 66.0614 37.1166 66.5405C21.2368 66.2949 8.45588 53.378 8.45588 37.5Z" fill="#FF5A5F"/>
</svg>
